<?xml version="1.0" encoding="utf-8"?>
<!-- Generator: Adobe Illustrator 26.0.0, SVG Export Plug-In . SVG Version: 6.00 Build 0)  -->
<svg version="1.1" id="Calque_1" xmlns="http://www.w3.org/2000/svg" xmlns:xlink="http://www.w3.org/1999/xlink" x="0px" y="0px"
	 viewBox="0 0 1920 1080" style="enable-background:new 0 0 1920 1080;" xml:space="preserve">
<style type="text/css">
	.st0{fill:#FDFDFD;}
	.st1{fill:#030303;}
	.st2{fill:#03A103;}
	.st3{fill:#020202;}
	.st4{fill:#02A102;}
	.st5{fill:#020302;}
	.st6{fill:#01A101;}
	.st7{fill:#037F03;}
	.st8{fill:#048104;}
	.st9{fill:#191919;}
	.st10{fill:#1C1C1C;}
	.st11{fill:#141414;}
	.st12{fill:#171717;}
	.st13{fill:#161616;}
	.st14{fill:#151515;}
	.st15{fill:#1A1A1A;}
	.st16{fill:#FCFCFC;}
	.st17{fill:#FBFBFB;}
	.st18{fill:#F4F4F4;}
	.st19{fill:#F5F5F5;}
	.st20{fill:#F7F7F7;}
</style>
<g>
	<g>
		<path class="st0" d="M0,1080C0,720.43,0,360.33,0,0c639.79,0,1279.68,0,1920,0c0,359.67,0,719.57,0,1080
			C1280.32,1080,640.21,1080,0,1080z M340.61,324.9c-27.48,15.57-48.24,37.85-64.83,64.4c-47.23,75.58-46.79,216.8,14.71,292.34
			c15.36,18.86,32.35,36.2,55.57,45.74c13.63,5.5,26.8,13.35,40.96,16.06c47.64,9.11,93.11,4.39,131.63-28.79
			c8.75-7.54,15.75-17.1,23.56-25.73c2.51,0.27,6.26-0.42,7.34,0.97c17.79,22.91,39.14,40.45,66.85,50.84
			c17.06,6.4,33.67,5.83,51.54,6.09c-11.37-38.11-22.9-73.9-32.61-110.17c-9.74-36.38-17.67-73.25-26.39-109.9
			c13.53-75.66,35.22-149.22,59.46-222.33c-47.74-6.98-92.45,19.18-121.13,59.23c-4.76-5.06-9.31-10.35-14.33-15.14
			c-27.01-25.78-57.32-44.18-96.23-45.31C402.65,302.21,370.46,308.02,340.61,324.9z M1450.59,677.81c0.94-0.16,1.88-0.32,2.82-0.48
			c0.75,0.89,1.59,1.71,2.22,2.68c17.87,27.34,41.21,48.23,73.84,54.64c21.21,4.17,42.49,3.03,63.87-5.45
			c30.17-11.96,51.79-32.5,69.01-58.62c24.06-36.5,34.92-77.59,38.6-120.54c5.67-66.12,1.48-131.06-31.21-190.84
			c-21.46-39.24-51.1-69.76-97.7-77.18c-35.39-5.63-67.83,1.12-92.92,29.23c-9.39,10.52-18.17,21.58-29.1,34.63
			c0-21.26,0-40.26,0-59.14c-32.06,0-62.32,0-93.39,0c0,190.82,0,381.08,0,571.66c31.4,0,62.01,0,93.95,0
			C1450.59,797.76,1450.59,737.78,1450.59,677.81z M1172.68,727.41c31.54,0,62.41,0,93.33,0c0-147.09,0-293.66,0-440.38
			c-31.24,0-61.74,0-93.03,0c0,5.85,0,10.87,0,15.89c0,75.07,0.71,150.15-0.47,225.2c-0.32,20.63-3.24,42.29-10.34,61.5
			c-13.7,37.08-59.98,47.3-86.32,14.29c-12.4-15.55-16.58-34.84-16.71-54.31c-0.54-82.23-0.45-164.46-0.59-246.7
			c-0.01-5.33,0-10.65,0-16.33c-32.25,0-62.56,0-93.6,0c-0.36,4.74-1,9.3-1,13.86c-0.06,89.83-0.22,179.66,0.05,269.48
			c0.09,30.81,2.82,61.36,13.41,90.74c12.99,36.03,34.85,64.47,73.45,73.26c47.75,10.87,77.53-5.19,106.64-42.89
			c4.56-5.91,8.67-12.18,12.98-18.28c0.73,0.38,1.46,0.77,2.19,1.15C1172.68,691.43,1172.68,708.97,1172.68,727.41z M1466.46,798.42
			c0,9.86,0,18.61,0,27.36c0,11.27,0,22.55,0,33.7c41.39,2.03,84.59,2.16,114.44-8.79c29.55-10.84,56.17-25.9,79.31-46.22
			c41.58-36.51,70.7-82.15,89.71-133.96c30.55-83.3,33.89-169.24,17.05-255.16c-17.37-88.63-57.36-164.93-135.79-216.58
			c-33.89-22.32-69.94-36.56-110.92-36.96c-125.09-1.19-250.17-2.45-375.26-3.64c-15.2-0.14-30.4-0.02-45.6-0.02
			c-52.78,0-105.56-0.03-158.34,0.04c-6.12,0.01-13.65-1.43-13.73,8.35c-0.15,18.01-0.04,36.02-0.04,55.05
			c7.08,0.31,12.87,0.8,18.66,0.8c186.63,0,373.26,0.36,559.89-0.4c40.69-0.17,77.28,10.78,109.84,33.55
			c37.67,26.34,64.4,62.35,83.46,104.1c24.33,53.3,31.33,109.59,29.19,167.45c-3.63,98.07-32.38,184.07-117.23,243.12
			c-24.11,16.78-49.69,28.84-79.99,28.26C1510.09,798.09,1489.04,798.42,1466.46,798.42z M835.81,394.73c25.53,0,49.39,0,73.3,0
			c0-34.38,0-67.82,0-102.37c-25.04,0-49.3,0-74.85,0c0.68-12.48-0.06-24.05,2.21-34.99c4.5-21.72,14.81-28.86,32.43-27.09
			c13.98,1.41,27.82,4.28,41.58,6.47c0-32.56,0-67.1,0-100.91c-21.5-13.14-45.13-12.8-68.46-13.23
			c-36.08-0.67-66.12,13.18-81.19,46.17c-10.18,22.28-14.05,47.85-18.03,72.39c-2.64,16.29-0.5,33.35-0.5,51.19
			c-14.08,0-26.15,0-38.75,0c0,34.69,0,68.22,0,103.21c12.96,0,25.36,0,38.88,0c0,111.66,0,221.87,0,331.72c31.7,0,62.22,0,93.38,0
			C835.81,616.32,835.81,506.38,835.81,394.73z M223.44,221.36c170.14,0,339.08,0,508.06,0c0-20.76,0-40.41,0-60.02
			c-169.65,0-338.61,0-508.06,0C223.44,181.28,223.44,200.56,223.44,221.36z M671.94,848.36c1.46,0.42,2.92,0.85,4.39,1.27
			c-3.94,8.07-5.97,19-12.43,23.33c-5.32,3.57-15.89-0.69-24.92-1.55c0.11,0.41,0.11,4.97,1.77,5.69
			c6.78,2.95,15.19,8.01,20.88,6.08c6.91-2.35,15.71-10.4,16.64-16.98c2.81-19.86,2.36-40.2,2.75-60.36
			c0.06-3.06-2.17-6.17-3.34-9.25c-2.08,2.63-4.16,5.26-6.24,7.89c-9.88-11.69-23.55-11.08-31.62,1.6
			c-6.82,10.72-6.58,22.18-2.98,33.94C641.42,854.98,656.47,866.47,671.94,848.36z M417.63,859.41c1.95-0.05,3.89-0.1,5.84-0.16
			c0-13.97,1.13-28.07-0.48-41.86c-0.81-6.92-5.2-16.9-10.5-18.94c-6.74-2.6-16.05,1.46-25.25,2.79
			c-3.08-8.06,4.59-21.56-6.28-31.48c0,29.77,0,59.54,0,89.32c1.24,0.22,2.49,0.45,3.73,0.67c0.87-3.65,2.15-7.26,2.53-10.97
			c1.14-11.17,0.74-22.68,3.48-33.4c1.01-3.93,9.22-8.39,14-8.25c3.79,0.12,9.77,6.48,10.55,10.82c1.77,9.83,0.83,20.12,1.18,30.22
			C416.57,851.93,417.22,855.66,417.63,859.41z M312.26,849.01c-29.09,2.56-33.92,0.3-32.54-18.45c11.68,0,23.52,0,36.28,0
			c-1.03-7.3-0.36-13.5-2.88-17.85c-3.48-6-8.53-13.08-14.46-15.07c-5.52-1.85-15.06,0.26-19.37,4.31
			c-13.04,12.24-13.5,39.2-0.49,51.34c4.71,4.39,14.55,4.61,21.95,4.29C304.7,857.41,308.43,852.04,312.26,849.01z M711.86,847.18
			c-3.08-10.8-4.71-19.9-8.32-28.13c-3.33-7.61-0.7-19.12-14.15-23.89c1.52,5.83,2.32,9.32,3.34,12.75
			c4.66,15.61,9.73,31.11,13.97,46.83c3.11,11.5-1.36,17.36-13.13,19.52c-1.58,0.29-4.03,2.26-4.01,3.42
			c0.03,2.02,1.14,5.06,2.72,5.87c9.52,4.87,15.92-0.6,18.53-8.56c8.4-25.59,15.72-51.53,23.46-77.34
			c-1.59-0.59-3.18-1.17-4.77-1.76C719.8,810.43,719.86,828.97,711.86,847.18z M627.67,831.19c-1.77-7.85-2.43-13.29-4.25-18.31
			c-2.86-7.9-6.78-15.13-16.66-16.14c-9.76-1-17.6,0.89-23.43,10.14c-8.33,13.22-6.55,37.41,4.66,47.94
			c7.62,7.15,24.09,5.88,29.9-3.17C622.22,844.9,624.91,837.09,627.67,831.19z M494.69,824.63c1.69,8.05,2.32,13.06,3.82,17.79
			c3.11,9.84,9.14,16.23,20.34,16.94c11.55,0.73,18.67-5.91,22.11-15.01c5.38-14.23,5.54-28.61-5.73-41.24
			c-7.64-8.56-23.84-9.75-30.17-0.46C500.13,809.87,497.44,818.61,494.69,824.63z M441.35,858.84c1.38,0.3,2.75,0.59,4.13,0.89
			c0.87-3.35,2.33-6.67,2.49-10.05c0.45-9.66-0.54-19.47,0.77-28.98c1.12-8.19,5.48-15.13,15.74-14.44
			c10.19,0.68,11.69,8.13,11.94,16.01c0.32,10.09-0.19,20.21,0.28,30.29c0.12,2.47,2.64,4.82,4.06,7.23c1.03-0.4,2.05-0.8,3.08-1.2
			c0-13.79,1.15-27.72-0.48-41.32c-0.83-6.91-5.31-16.87-10.62-18.88c-6.64-2.51-15.85,1.74-24.42,3.15
			c-0.54-0.58-2.91-3.08-6.96-7.37C441.35,817.97,441.35,838.4,441.35,858.84z M243.66,785.26c0,25.01,0,49.45,0,73.89
			c1.29,0.08,2.57,0.17,3.86,0.26c6.58-10.72,2-23.18,2.77-34.69c0.87-12.9,0.2-25.9,0.2-39.13c7.32-0.45,13.46-0.83,19.6-1.2
			c0.63-0.97,1.26-1.94,1.9-2.91c-2.41-2.06-4.72-5.77-7.23-5.91c-11.79-0.64-23.66-0.71-35.43,0.03c-2.61,0.16-4.97,4.45-7.44,6.84
			c0.86,0.94,1.71,1.89,2.57,2.83C230.3,785.26,236.16,785.26,243.66,785.26z M363.26,849.62c-9.58-1.68-21.79-0.27-27.46-5.68
			c-7.7-7.36-6.97-19.86-1.43-30.61c7.54-14.65,19.09-5.16,29.29-4.29c-2.62-11.11-7.41-13.83-20.12-12.29
			c-12.92,1.56-20.67,14.95-19.79,34.2c0.77,16.86,9.2,27.57,22.28,28.28C357.42,859.83,362.45,856.17,363.26,849.62z
			 M557.87,767.92c0,31.59,0,61.27,0,90.95c3.95-0.97,6.28-3.01,6.63-5.34C568.01,830.34,564.64,774.27,557.87,767.92z"/>
		<path class="st1" d="M1450.59,677.81c0,59.97,0,119.95,0,180.6c-31.94,0-62.55,0-93.95,0c0-190.58,0-380.84,0-571.66
			c31.07,0,61.32,0,93.39,0c0,18.88,0,37.88,0,59.14c10.93-13.05,19.71-24.11,29.1-34.63c25.09-28.11,57.53-34.86,92.92-29.23
			c46.6,7.42,76.24,37.94,97.7,77.18c32.69,59.78,36.88,124.72,31.21,190.84c-3.69,42.95-14.54,84.04-38.6,120.54
			c-17.22,26.12-38.83,46.65-69.01,58.62c-21.38,8.48-42.67,9.61-63.87,5.45c-32.62-6.41-55.97-27.3-73.84-54.64
			c-0.63-0.97-1.48-1.79-2.22-2.68C1452.47,677.49,1451.53,677.65,1450.59,677.81z M1608.64,519.81
			c0.57-38.34-4.16-65.42-17.56-90.34c-11.29-21-27.51-37.68-51.58-42.36c-30.22-5.88-52.87,8.92-67.07,33.85
			c-33.88,59.49-33.31,120.05,2.15,178.62c23.07,38.11,76.25,37.32,101.22,8.7C1601.06,579.34,1607.16,545.58,1608.64,519.81z"/>
		<path class="st1" d="M1172.68,727.41c0-18.44,0-35.97,0-53.51c-0.73-0.38-1.46-0.77-2.19-1.15c-4.32,6.1-8.42,12.37-12.98,18.28
			c-29.1,37.7-58.89,53.76-106.64,42.89c-38.6-8.79-60.46-37.23-73.45-73.26c-10.59-29.38-13.31-59.93-13.41-90.74
			c-0.27-89.83-0.11-179.66-0.05-269.48c0-4.56,0.64-9.12,1-13.86c31.04,0,61.35,0,93.6,0c0,5.68-0.01,11.01,0,16.33
			c0.14,82.23,0.04,164.47,0.59,246.7c0.13,19.47,4.3,38.76,16.71,54.31c26.33,33.01,72.62,22.79,86.32-14.29
			c7.1-19.21,10.02-40.87,10.34-61.5c1.18-75.05,0.47-150.13,0.47-225.2c0-5.02,0-10.04,0-15.89c31.29,0,61.79,0,93.03,0
			c0,146.72,0,293.29,0,440.38C1235.09,727.41,1204.23,727.41,1172.68,727.41z"/>
		<path class="st2" d="M1466.46,798.42c22.57,0,43.62-0.33,64.66,0.08c30.3,0.58,55.88-11.48,79.99-28.26
			c84.85-59.05,113.6-145.05,117.23-243.12c2.14-57.86-4.86-114.15-29.19-167.45c-19.06-41.75-45.79-77.77-83.46-104.1
			c-32.57-22.77-69.16-33.72-109.84-33.55c-186.63,0.76-373.26,0.4-559.89,0.4c-5.79,0-11.59-0.48-18.66-0.8
			c0-19.03-0.11-37.04,0.04-55.05c0.08-9.78,7.61-8.34,13.73-8.35c52.78-0.07,105.56-0.04,158.34-0.04c15.2,0,30.4-0.12,45.6,0.02
			c125.09,1.19,250.17,2.45,375.26,3.64c40.98,0.39,77.03,14.64,110.92,36.96c78.42,51.64,118.42,127.94,135.79,216.58
			c16.84,85.93,13.5,171.86-17.05,255.16c-19,51.81-48.13,97.45-89.71,133.96c-23.13,20.31-49.76,35.37-79.31,46.22
			c-29.85,10.96-73.05,10.82-114.44,8.79c0-11.15,0-22.43,0-33.7C1466.46,817.03,1466.46,808.28,1466.46,798.42z"/>
		<path class="st3" d="M835.81,394.73c0,111.66,0,221.59,0,332.56c-31.16,0-61.68,0-93.38,0c0-109.86,0-220.06,0-331.72
			c-13.52,0-25.91,0-38.88,0c0-34.99,0-68.52,0-103.21c12.6,0,24.67,0,38.75,0c0-17.84-2.14-34.9,0.5-51.19
			c3.98-24.54,7.85-50.11,18.03-72.39c15.07-32.99,45.11-46.83,81.19-46.17c23.34,0.43,46.96,0.1,68.46,13.23
			c0,33.82,0,68.35,0,100.91c-13.76-2.2-27.6-5.07-41.58-6.47c-17.63-1.77-27.93,5.36-32.43,27.09
			c-2.27,10.95-1.52,22.51-2.21,34.99c25.56,0,49.81,0,74.85,0c0,34.56,0,67.99,0,102.37C885.2,394.73,861.34,394.73,835.81,394.73z
			"/>
		<path class="st4" d="M542.21,688.91c-7.81,8.63-14.81,18.19-23.56,25.73c-38.52,33.18-84,37.9-131.63,28.79
			c-14.16-2.71-27.34-10.56-40.96-16.05c0.88-0.88,1.63-2.34,2.64-2.55c32.43-6.67,57.35-25.21,78.24-49.79
			c17.39-20.46,33.15-41.96,37.08-69.64c7.93-27.31,15.88-54.62,23.82-81.94c0.64-0.79,0.56-1.51-0.23-2.16
			c-0.31-1.69-0.63-3.39-0.94-5.08c2.1-2.79,5.21-5.28,6.13-8.41c8.02-27.27,14.09-55.23,23.88-81.84
			c7.95-21.6,20.23-41.61,30.59-62.33c28.68-40.05,73.39-66.21,121.13-59.23c-24.24,73.11-45.92,146.67-59.46,222.33
			c-6.76,26.2-11.64,53.08-20.76,78.43C577.36,635.22,564.58,664.88,542.21,688.91z"/>
		<path class="st5" d="M464.03,605.39c-3.94,27.69-19.69,49.18-37.09,69.65c-20.89,24.58-45.81,43.13-78.24,49.79
			c-1.01,0.21-1.76,1.67-2.64,2.55c-23.22-9.55-40.22-26.89-55.57-45.75c-61.5-75.54-61.94-216.76-14.71-292.34
			c16.59-26.55,37.35-48.83,64.83-64.39c6.95,1.14,14.15,1.5,20.82,3.56c26.3,8.12,46.44,25.46,64.2,45.51
			c18.1,20.43,34.2,42.27,38.06,70.52c-10.33-9.42-20.12-19.13-35.56-20.39c-23.66-1.94-41.14,7.96-53.68,26.82
			c-27.9,41.99-28.12,86.59-9.7,131.9c7.63,18.77,20.63,34.45,40.31,41.26C428.55,632.2,448.22,623.77,464.03,605.39z"/>
		<path class="st6" d="M223.44,221.36c0-20.8,0-40.08,0-60.02c169.46,0,338.41,0,508.06,0c0,19.61,0,39.26,0,60.02
			C562.52,221.36,393.58,221.36,223.44,221.36z"/>
		<path class="st7" d="M463.69,444.49c-3.86-28.25-19.96-50.1-38.06-70.52c-17.76-20.05-37.9-37.39-64.2-45.51
			c-6.67-2.06-13.87-2.41-20.82-3.56c29.85-16.88,62.05-22.69,96.09-21.7c38.91,1.13,69.23,19.52,96.23,45.31
			c5.02,4.79,9.56,10.08,14.33,15.14c-10.36,20.72-22.64,40.73-30.59,62.33c-9.79,26.6-15.86,54.56-23.88,81.84
			c-0.92,3.13-4.03,5.62-6.13,8.41c-0.81-1.85-1.81-3.64-2.41-5.55C477.37,488.62,470.54,466.55,463.69,444.49z"/>
		<path class="st8" d="M542.21,688.91c22.37-24.03,35.15-53.7,45.96-83.74c9.13-25.35,14-52.23,20.76-78.43
			c8.72,36.65,16.65,73.52,26.39,109.9c9.71,36.27,21.25,72.06,32.61,110.17c-17.86-0.26-34.48,0.3-51.54-6.09
			c-27.71-10.39-49.06-27.93-66.85-50.84C548.47,688.5,544.72,689.19,542.21,688.91z"/>
		<path class="st9" d="M671.94,848.36c-15.47,18.11-30.52,6.62-35.1-8.34c-3.6-11.76-3.84-23.22,2.98-33.94
			c8.07-12.69,21.74-13.29,31.62-1.6c2.08-2.63,4.16-5.26,6.24-7.89c1.17,3.09,3.4,6.19,3.34,9.25c-0.39,20.16,0.06,40.5-2.75,60.36
			c-0.93,6.58-9.73,14.63-16.64,16.98c-5.69,1.93-14.1-3.13-20.88-6.08c-1.67-0.72-1.66-5.28-1.77-5.69
			c9.02,0.86,19.6,5.12,24.92,1.55c6.46-4.33,8.49-15.26,12.43-23.33C674.87,849.21,673.4,848.78,671.94,848.36z M673.77,826.69
			c0.06-13.2-5.73-21.11-15.75-21.5c-10.52-0.41-17.1,7.91-17.02,21.53c0.07,13.29,5.75,20.93,15.79,21.27
			C667.63,848.35,673.71,840.73,673.77,826.69z"/>
		<path class="st10" d="M417.63,859.41c-0.41-3.74-1.06-7.48-1.19-11.23c-0.35-10.1,0.59-20.4-1.18-30.22
			c-0.78-4.35-6.77-10.71-10.55-10.82c-4.79-0.15-13,4.31-14,8.25c-2.74,10.73-2.34,22.24-3.48,33.4c-0.38,3.7-1.66,7.31-2.53,10.97
			c-1.24-0.22-2.49-0.45-3.73-0.67c0-29.77,0-59.54,0-89.32c10.87,9.92,3.2,23.42,6.28,31.48c9.2-1.33,18.51-5.38,25.25-2.79
			c5.3,2.04,9.7,12.02,10.5,18.94c1.61,13.78,0.48,27.89,0.48,41.86C421.53,859.3,419.58,859.35,417.63,859.41z"/>
		<path class="st11" d="M312.26,849.01c-3.83,3.03-7.57,8.4-11.53,8.57c-7.39,0.32-17.24,0.11-21.95-4.29
			c-13.01-12.15-12.55-39.11,0.49-51.34c4.31-4.05,13.85-6.16,19.37-4.31c5.93,1.99,10.99,9.07,14.46,15.07
			c2.52,4.35,1.86,10.55,2.88,17.85c-12.75,0-24.59,0-36.28,0C278.34,849.31,283.18,851.58,312.26,849.01z M309.15,824.54
			c-1.55-11.35-4.45-20.22-17.24-19.27c-11.56,0.86-13.63,9.45-14.77,19.27C287.93,824.54,297.88,824.54,309.15,824.54z"/>
		<path class="st9" d="M711.86,847.18c8.01-18.21,7.94-36.75,17.65-51.29c1.59,0.59,3.18,1.17,4.77,1.76
			c-7.74,25.81-15.06,51.75-23.46,77.34c-2.61,7.96-9.02,13.42-18.53,8.56c-1.58-0.81-2.69-3.84-2.72-5.87
			c-0.02-1.16,2.43-3.13,4.01-3.42c11.76-2.16,16.23-8.03,13.13-19.52c-4.25-15.72-9.31-31.22-13.97-46.83
			c-1.02-3.43-1.82-6.92-3.34-12.75c13.45,4.77,10.82,16.29,14.15,23.89C707.15,827.28,708.77,836.38,711.86,847.18z"/>
		<path class="st12" d="M627.67,831.19c-2.75,5.9-5.45,13.71-9.78,20.46c-5.8,9.05-22.28,10.32-29.9,3.17
			c-11.21-10.53-12.99-34.72-4.66-47.94c5.83-9.26,13.67-11.14,23.43-10.14c9.87,1.01,13.79,8.25,16.66,16.14
			C625.24,817.9,625.9,823.34,627.67,831.19z M619.17,828.56c0.21-14.27-6.22-23.24-16.75-23.36c-10.34-0.12-16.85,8.13-17.15,21.74
			c-0.33,14.77,5.66,23.04,16.79,23.18C612.7,850.26,618.96,842.37,619.17,828.56z"/>
		<path class="st13" d="M494.69,824.63c2.75-6.02,5.44-14.76,10.36-21.98c6.33-9.29,22.54-8.1,30.17,0.46
			c11.27,12.63,11.1,27.01,5.73,41.24c-3.44,9.1-10.56,15.75-22.11,15.01c-11.21-0.71-17.23-7.1-20.34-16.94
			C497.01,837.68,496.38,832.68,494.69,824.63z M503.04,828c-0.01,14.01,5.92,21.93,16.56,22.13c11.15,0.2,17.48-8.05,17.35-22.63
			c-0.12-13.61-6.45-22.09-16.64-22.31C509.61,804.96,503.05,813.62,503.04,828z"/>
		<path class="st12" d="M441.35,858.84c0-20.44,0-40.87,0-64.68c4.05,4.29,6.42,6.8,6.96,7.37c8.57-1.41,17.77-5.66,24.42-3.15
			c5.32,2.01,9.79,11.97,10.62,18.88c1.64,13.6,0.48,27.53,0.48,41.32c-1.03,0.4-2.05,0.8-3.08,1.2c-1.42-2.41-3.95-4.76-4.06-7.23
			c-0.47-10.08,0.03-20.2-0.28-30.29c-0.25-7.88-1.75-15.33-11.94-16.01c-10.26-0.69-14.61,6.26-15.74,14.44
			c-1.31,9.51-0.32,19.32-0.77,28.98c-0.16,3.38-1.62,6.7-2.49,10.05C444.11,859.43,442.73,859.13,441.35,858.84z"/>
		<path class="st10" d="M243.66,785.26c-7.5,0-13.36,0-19.22,0c-0.86-0.94-1.71-1.89-2.57-2.83c2.47-2.39,4.83-6.67,7.44-6.84
			c11.77-0.74,23.64-0.67,35.43-0.03c2.51,0.14,4.83,3.85,7.23,5.91c-0.63,0.97-1.26,1.94-1.9,2.91c-6.14,0.38-12.28,0.75-19.6,1.2
			c0,13.23,0.67,26.23-0.2,39.13c-0.77,11.51,3.81,23.97-2.77,34.69c-1.29-0.09-2.57-0.17-3.86-0.26
			C243.66,834.71,243.66,810.27,243.66,785.26z"/>
		<path class="st14" d="M363.26,849.62c-0.81,6.55-5.84,10.21-17.23,9.59c-13.07-0.71-21.51-11.41-22.28-28.28
			c-0.88-19.25,6.87-32.63,19.79-34.2c12.71-1.54,17.5,1.19,20.12,12.29c-10.2-0.87-21.75-10.35-29.29,4.29
			c-5.53,10.74-6.27,23.25,1.43,30.61C341.47,849.35,353.68,847.94,363.26,849.62z"/>
		<path class="st15" d="M557.87,767.92c6.78,6.36,10.14,62.42,6.63,85.61c-0.35,2.33-2.68,4.37-6.63,5.34
			C557.87,829.19,557.87,799.51,557.87,767.92z"/>
		<path class="st16" d="M1608.64,519.81c-1.48,25.77-7.58,59.54-32.83,88.47c-24.97,28.62-78.15,29.4-101.22-8.7
			c-35.47-58.57-36.03-119.13-2.15-178.62c14.2-24.93,36.85-39.73,67.07-33.85c24.07,4.68,40.29,21.36,51.58,42.36
			C1604.48,454.39,1609.21,481.47,1608.64,519.81z"/>
		<path class="st17" d="M463.69,444.49c6.85,22.06,13.68,44.13,20.57,66.18c0.6,1.91,1.6,3.7,2.41,5.55
			c0.31,1.69,0.63,3.39,0.94,5.08c-0.63,0.79-0.56,1.51,0.23,2.16c-7.94,27.32-15.88,54.63-23.82,81.94
			c-15.8,18.37-35.47,26.81-58.96,18.68c-19.68-6.81-32.68-22.5-40.31-41.26c-18.42-45.3-18.2-89.91,9.7-131.9
			c12.54-18.87,30.02-28.76,53.68-26.82C443.57,425.36,453.36,435.07,463.69,444.49z"/>
		<path class="st7" d="M487.84,523.46c-0.78-0.64-0.86-1.36-0.23-2.16C488.4,521.95,488.47,522.67,487.84,523.46z"/>
		<path class="st18" d="M673.77,826.69c-0.06,14.03-6.15,21.66-16.99,21.3c-10.04-0.34-15.71-7.98-15.79-21.27
			c-0.07-13.63,6.5-21.94,17.02-21.53C668.04,805.58,673.83,813.49,673.77,826.69z"/>
		<path class="st19" d="M309.15,824.54c-11.27,0-21.22,0-32.01,0c1.14-9.82,3.2-18.4,14.77-19.27
			C304.7,804.32,307.6,813.19,309.15,824.54z"/>
		<path class="st20" d="M619.17,828.56c-0.2,13.8-6.47,21.7-17.12,21.56c-11.13-0.14-17.12-8.41-16.79-23.18
			c0.31-13.61,6.81-21.86,17.15-21.74C612.94,805.32,619.38,814.29,619.17,828.56z"/>
		<path class="st20" d="M503.04,828c0.01-14.38,6.57-23.04,17.27-22.81c10.19,0.22,16.52,8.7,16.64,22.31
			c0.13,14.58-6.19,22.83-17.35,22.63C508.96,849.93,503.03,842,503.04,828z"/>
	</g>
</g>
</svg>
